<?xml version="1.0" encoding="UTF-8"?>
<svg id="Ebene_1" xmlns="http://www.w3.org/2000/svg" version="1.1" viewBox="0 0 5003.88 1693.07">
  <!-- Generator: Adobe Illustrator 29.8.2, SVG Export Plug-In . SVG Version: 2.1.1 Build 3)  -->
  <defs>
    <style>
      .st0 {
        fill: #3903cb;
      }

      .st1 {
        fill: #3803cd;
      }

      .st2, .st3 {
        fill: #23242b;
      }

      .st4 {
        fill: #23242d;
      }

      .st3 {
        fill-rule: evenodd;
      }
    </style>
  </defs>
  <g>
    <rect class="st2" x="2097.23" y="184.4" width="224.97" height="1099.69"/>
    <rect class="st4" x="2350.17" y="982.79" width="224.97" height="377.62" transform="translate(3634.26 -1291.05) rotate(90)"/>
  </g>
  <g>
    <polygon class="st4" points="4831.38 1284.09 4615.7 1284.09 4251.3 191.09 4466.97 191.09 4831.38 1284.09"/>
    <rect class="st4" x="4165.55" y="833.93" width="442.5" height="201.61"/>
    <polygon class="st4" points="3377.52 187.18 3524.03 626.62 3739.7 626.62 3593.19 187.18 3377.52 187.18"/>
    <polygon class="st0" points="3901.11 187.18 4116.79 187.18 3752.38 1280.17 3536.71 1280.17 3901.11 187.18"/>
    <g>
      <polygon class="st0" points="3900.43 191.09 4116.1 191.09 3751.7 1284.09 3536.02 1284.09 3900.43 191.09"/>
      <polygon class="st0" points="4251.57 191.09 4467.25 191.09 4102.84 1284.09 3887.17 1284.09 4251.57 191.09"/>
    </g>
  </g>
  <g>
    <path class="st2" d="M514.41,568.73V178.13h-97.96v389.24c0,30.15-11.7,47.28-43.13,47.28s-42.4-17.82-42.4-47.28V178.13h-97.96v390.61c0,74.01,35.09,125.41,132.32,125.41h16.08c97.23,0,133.06-52.77,133.06-125.41Z"/>
    <path class="st2" d="M514.41,1154.83v-14.58c0-61.11-21.09-92.35-69.82-134.71l-69.82-61.11c-29.82-25.69-40-40.97-40-70.83v-4.86c0-29.17,13.09-41.66,41.46-41.66,26.18,0,39.27,12.5,39.27,43.75v50h93.09v-68.05c0-67.36-45.82-99.99-125.09-99.99h-15.27c-85.82,0-131.64,36.8-131.64,114.58v14.58c0,56.94,23.27,90.97,66.18,127.77l70.55,60.41c29.09,25,40.73,42.36,40.73,76.38v5.55c0,32.64-15.27,50-42.91,50s-43.64-13.89-43.64-42.36v-70.83h-94.55v87.49c0,65.97,45.82,104.16,130.19,104.16h16c96.73,0,135.28-54.86,135.28-125.68Z"/>
    <path class="st3" d="M690.32,178.13h-93.82v.02l-5.86,1102.38h94.17l2.94-586.38h.02l.02-6.79,1.01-201.28h54.66c72.43,0,111.07-34.68,111.07-113.05v-84.62c0-82.53-36.56-110.28-111.07-110.28h-53.12ZM689.16,409.08l.79-157.44h30.72c31.73,0,42.77,12.48,42.77,54.1v48.55c0,43-11.04,54.79-42.77,54.79h-31.51Z"/>
    <path class="st2" d="M784.14,1280.52h136.82c78.18,0,109.46-39.01,109.46-124.13v-282.31c0-87.25-31.27-121.3-109.46-121.3h-136.82v527.74ZM870.79,827.97h31.93c29.97,0,40.39,17.02,40.39,55.33v261.74c0,36.89-10.42,55.33-41.7,55.33h-30.62v-372.4Z"/>
    <path class="st2" d="M1112.51,752.78v527.74h222.82v-84.41h-135.84v-146.12h109.74v-84.41h-109.74v-130.52h135.84v-82.28h-222.82Z"/>
    <path class="st1" d="M1237.05,178.13h98.29l-169.78,516.01h-98.29l169.78-516.01Z"/>
    <path class="st1" d="M1072.86,178.13h98.29l-169.78,516.01h-98.29l169.78-516.01Z"/>
    <path class="st2" d="M854.96,1534.69c34.92,0,55.59-19.76,57.43-48.24h-30.09c-1.61,15.39-12.41,23.2-25.73,23.2-18.61,0-29.41-12.41-29.41-36.53v-1.84c0-22.97,11.49-35.84,28.72-35.84,13.55,0,22.05,6.43,24.35,20.45h31.47c-2.99-34.46-28.72-46.63-56.51-46.63-34.23,0-62.03,23.66-62.03,62.49v1.84c0,39.28,26.65,61.11,61.8,61.11ZM989.15,1534.69c36.07,0,63.41-24.12,63.41-62.03v-1.84c0-37.45-27.11-61.57-63.18-61.57s-63.4,24.58-63.4,62.26v1.84c0,37.45,27.34,61.34,63.17,61.34ZM989.38,1509.42c-18.84,0-29.4-13.78-29.4-36.76v-1.84c0-22.97,11.03-36.3,29.4-36.3s29.4,13.78,29.4,36.76v1.61c0,22.74-10.8,36.53-29.4,36.53ZM1129.79,1508.73c-16.54,0-28.03-11.72-28.03-35.61v-1.84c0-23.89,10.34-36.53,28.95-36.53s28.72,12.18,28.72,36.07v1.84c0,24.35-12.18,36.07-29.63,36.07ZM1119.91,1534.69c17.69,0,32.39-10.34,38.59-22.51v19.99h33.08v-174.59h-33.08v72.36c-6.66-12.18-18.61-20.68-37.9-20.68-30.09,0-52.84,23.2-52.84,62.72v1.84c0,39.97,22.97,60.88,52.15,60.88ZM1276.52,1534.69c32.85,0,53.53-14.47,57.43-40.43h-31.47c-2.07,10.11-9.65,16.77-25.04,16.77-18.15,0-28.94-11.49-29.86-31.47h86.61v-9.19c0-42.96-27.57-61.11-58.58-61.11-34.92,0-61.8,24.58-61.8,62.49v1.84c0,38.36,26.42,61.11,62.71,61.11ZM1248.04,1459.11c2.53-17,12.63-26.88,27.57-26.88,15.85,0,25.04,8.73,26.19,26.88h-53.76Z"/>
  </g>
  <path class="st2" d="M3295.91,1016.93V184.79h-208.7v829.21c0,64.24-24.92,100.73-91.89,100.73s-90.33-37.96-90.33-100.73V184.79h-208.7v832.14c0,157.67,74.76,267.16,281.9,267.16h34.26c207.14,0,283.45-112.41,283.45-267.16Z"/>
</svg>
